<svg version="1.1" id="Layer_1" xmlns="http://www.w3.org/2000/svg" xmlns:xlink="http://www.w3.org/1999/xlink" x="0px" y="0px"
	 width="100%" viewBox="0 0 343 343" enable-background="new 0 0 343 343" xml:space="preserve">
<path stroke="none" 
	d="
M1.000000,129.000000 
	C1.000000,86.000008 1.000000,43.500015 1.000000,1.000017 
	C115.333305,1.000011 229.666611,1.000011 343.999939,1.000006 
	C343.999939,115.333282 343.999939,229.666565 343.999969,343.999878 
	C229.666733,343.999939 115.333473,343.999939 1.000103,343.999969 
	C1.000000,272.500000 1.000000,201.000000 1.000000,129.000000 
M290.529419,106.675285 
	C290.978241,105.769897 291.427063,104.864510 292.434692,103.538239 
	C295.508118,98.409958 298.581512,93.281677 302.147766,87.933739 
	C302.464600,87.300362 302.781433,86.666992 303.637634,85.639313 
	C307.787537,78.827606 311.937408,72.015892 316.647614,64.806450 
	C320.493469,58.594604 324.339325,52.382751 328.371155,45.870514 
	C318.434479,45.870514 309.689911,45.870514 300.026245,45.734028 
	C295.017792,45.785267 290.009308,45.836506 284.072937,45.739204 
	C276.714233,45.779083 269.355499,45.818962 261.070221,45.705654 
	C253.379074,45.754555 245.687927,45.803459 237.071274,45.696041 
	C231.381012,45.752060 225.690735,45.808075 219.072617,45.713787 
	C212.381210,45.766056 205.689789,45.818325 198.073074,45.714714 
	C192.380753,45.767300 186.688446,45.819881 180.070526,45.716881 
	C174.054916,45.732296 168.039291,45.747707 161.359650,45.389301 
	C158.563202,45.512295 155.766754,45.635288 152.041122,45.666183 
	C146.028488,45.721554 140.015839,45.776924 133.076019,45.677258 
	C127.048790,45.733379 121.021561,45.789501 114.070732,45.686962 
	C108.711761,45.729294 103.352798,45.771626 97.070763,45.664021 
	C92.049194,45.724358 87.027618,45.784691 81.115364,45.689098 
	C78.411522,45.739552 75.707680,45.790009 72.077492,45.675270 
	C65.384781,45.722485 58.692074,45.769699 51.072105,45.659729 
	C40.841995,45.659729 30.611883,45.659729 18.916197,45.659729 
	C26.670847,57.952091 33.681305,69.064789 40.895161,80.855957 
	C42.724094,83.564331 44.553032,86.272713 46.390900,89.681412 
	C48.052265,92.427971 49.713634,95.174522 51.373116,98.554756 
	C51.977184,99.352158 52.581249,100.149559 53.199055,101.633377 
	C56.355930,106.432983 59.817127,111.065834 62.568672,116.087532 
	C64.591537,119.779350 67.092842,121.060394 71.887794,120.240547 
	C74.592438,120.174614 77.297089,120.108681 80.920746,120.248260 
	C91.614601,120.174271 102.308464,120.100273 113.864334,120.266434 
	C116.241005,120.222328 118.617668,120.178223 121.897461,120.328148 
	C126.059044,120.491089 130.220627,120.654030 134.286865,121.776306 
	C134.435135,128.841064 134.583420,135.905823 134.407120,143.841827 
	C134.507370,147.223114 134.607620,150.604385 134.366745,154.861938 
	C134.459915,162.913269 134.553085,170.964600 134.339355,179.892136 
	C134.455872,184.267502 134.572372,188.642868 134.370392,193.888687 
	C134.460022,197.914032 134.549667,201.939362 134.315857,206.860138 
	C134.367447,214.903488 134.419037,222.946854 134.209534,231.882431 
	C134.298325,235.923187 134.387100,239.963959 134.222565,244.907471 
	C134.190002,251.728043 134.968918,258.674347 133.936035,265.339935 
	C132.358078,275.522949 137.179886,280.791016 145.983948,284.728058 
	C146.675583,285.078339 147.367233,285.428619 148.573715,286.241058 
	C152.076370,288.487793 155.557114,290.769592 159.086258,292.973877 
	C166.265244,297.457855 173.470383,301.899933 181.048950,306.903442 
	C183.635773,308.515045 186.222595,310.126648 189.044983,312.313080 
	C196.831528,317.520844 204.618073,322.728638 212.404617,327.936432 
	C212.901688,327.733521 213.398773,327.530609 213.895844,327.327728 
	C213.257767,322.436737 214.125137,316.512451 211.638809,312.890076 
	C207.624619,307.041687 201.402725,302.708588 195.826950,297.151001 
	C189.876633,291.409546 183.926300,285.668091 177.723907,279.318878 
	C170.484055,274.017792 166.275970,267.347046 168.043762,257.957764 
	C168.099976,257.659180 167.922760,257.316681 168.038010,256.150879 
	C167.975449,254.431610 167.912888,252.712341 168.039673,250.073273 
	C167.960205,239.383026 167.880737,228.692764 168.001862,217.189926 
	C166.948868,211.010910 171.719284,212.526031 175.528778,212.287292 
	C176.889542,212.576187 178.250305,212.865082 179.632233,214.069366 
	C179.689255,221.387589 179.746277,228.705795 179.590439,236.819748 
	C179.476303,244.945724 179.564011,253.081619 179.164566,261.193542 
	C178.958664,265.375244 180.238449,268.251678 184.229172,270.604919 
	C185.169418,271.399750 186.109680,272.194580 187.297958,273.603943 
	C193.041962,279.144165 198.785965,284.684418 204.822250,290.850098 
	C207.230392,293.241486 209.638519,295.632843 212.826111,298.798248 
	C212.826111,293.455170 212.826111,289.716919 212.984894,285.056030 
	C212.914566,275.705109 212.844238,266.354187 212.967941,256.083008 
	C212.897491,250.055450 212.827026,244.027908 212.951172,237.088974 
	C212.928787,232.716583 212.906418,228.344208 213.315414,223.292053 
	C213.165009,212.870407 213.014587,202.448776 212.942459,191.103668 
	C212.857697,187.398117 212.772934,183.692581 212.885010,179.069611 
	C212.884552,171.063217 212.884094,163.056839 213.197403,154.291077 
	C213.098343,150.199463 212.999298,146.107834 212.960297,141.080460 
	C212.868362,135.712784 212.776428,130.345108 212.866638,124.178970 
	C212.849167,123.088326 212.831696,121.997681 213.598343,120.583549 
	C219.732025,120.388687 225.865707,120.193825 232.911240,120.237053 
	C238.940094,120.161583 244.968948,120.086121 251.909592,120.254066 
	C261.607117,120.181747 271.304626,120.109436 281.705017,119.964020 
	C284.454346,115.634697 287.203674,111.305382 290.005188,106.991333 
	C290.005188,106.991333 289.970703,106.949181 290.529419,106.675285 
z"/>
<path fill="#2578B1" opacity="1.000000" stroke="none" 
	d="
M134.382217,120.816971 
	C130.220627,120.654030 126.059044,120.491089 121.446854,119.782242 
	C120.379036,116.095238 120.795288,111.961487 118.929840,110.019371 
	C115.025848,105.954941 109.739731,103.260063 105.362770,99.594879 
	C101.754997,96.573792 96.623955,94.725349 96.469696,88.993553 
	C102.668083,88.942566 108.398834,88.906471 114.589310,88.896042 
	C122.366356,89.034416 129.683670,89.147110 137.003967,89.644447 
	C137.969254,97.754684 144.092941,101.343307 149.343277,105.759911 
	C153.696655,109.421974 157.583817,113.632904 161.795227,117.471565 
	C163.630890,119.144768 165.760834,120.495117 167.857620,122.436920 
	C167.881195,125.918633 167.804260,128.955505 167.368164,131.999649 
	C165.039642,132.849533 162.544540,133.197037 161.198380,134.626495 
	C156.967789,139.118866 152.778397,137.839691 148.119019,135.629364 
	C143.648804,133.508774 144.217468,129.686584 143.892960,125.871040 
	C143.718903,123.824532 142.910370,120.662766 141.573853,120.157288 
	C139.549393,119.391624 136.814987,120.503067 134.382217,120.816971 
z"/>
<path fill="#39B2E1" opacity="1.000000" stroke="none" 
	d="
M145.726517,284.170715 
	C137.179886,280.791016 132.358078,275.522949 133.936035,265.339935 
	C134.968918,258.674347 134.190002,251.728043 134.715485,244.453003 
	C139.938553,243.308395 141.010986,247.245560 142.500671,250.162781 
	C146.441483,257.880035 150.105301,265.694397 158.343277,269.991241 
	C159.414749,270.550110 160.267593,271.857147 160.831665,273.008667 
	C166.170517,283.907867 166.390274,284.026001 177.163849,280.493225 
	C178.307068,289.380127 179.485916,297.869720 180.664749,306.359314 
	C173.470383,301.899933 166.265244,297.457855 159.086258,292.973877 
	C155.557114,290.769592 152.076370,288.487793 148.243118,285.693024 
	C147.183853,284.820221 146.455185,284.495453 145.726517,284.170715 
z"/>
<path fill="#3FAFC3" opacity="1.000000" stroke="none" 
	d="
M40.691761,80.177490 
	C33.681305,69.064789 26.670847,57.952091 18.916197,45.659729 
	C30.611883,45.659729 40.841995,45.659729 51.534939,46.171669 
	C51.523743,50.900204 49.037807,55.508911 54.533405,58.543583 
	C55.064056,58.836601 54.746586,60.452442 55.085358,61.355755 
	C55.598633,62.724380 56.001793,64.699432 57.044125,65.211868 
	C63.335129,68.304688 62.588505,75.945099 66.876877,80.407654 
	C66.082214,81.783112 65.449715,82.885727 64.457443,83.995422 
	C61.222557,83.314384 57.705219,83.438377 55.601570,81.774757 
	C50.719849,77.914162 46.087097,76.831627 40.691761,80.177490 
z"/>
<path fill="#5FB460" opacity="1.000000" stroke="none" 
	d="
M212.688156,179.987030 
	C212.772934,183.692581 212.857697,187.398117 212.641510,191.881226 
	C212.229340,200.438202 212.118103,208.217621 211.658203,216.033173 
	C205.691467,220.394699 200.307541,225.080917 194.378983,228.927780 
	C189.879868,231.847137 184.687302,233.697815 179.803314,236.024017 
	C179.746277,228.705795 179.689255,221.387589 180.075989,213.568085 
	C184.751511,213.413864 188.810196,212.888412 190.213654,208.212387 
	C190.869019,206.028839 190.114746,203.422195 190.347992,201.039490 
	C192.393661,200.895645 194.518875,201.306290 195.709885,200.436996 
	C199.776260,197.469009 203.220566,193.787247 203.902252,188.475662 
	C204.579636,183.197510 207.792603,180.779480 212.688156,179.987030 
z"/>
<path fill="#7FC766" opacity="1.000000" stroke="none" 
	d="
M316.087311,65.204185 
	C311.937408,72.015892 307.787537,78.827606 303.015564,85.796844 
	C296.846619,80.150154 290.983978,74.603081 285.930511,68.397133 
	C284.245422,66.327774 283.210175,61.765133 284.354736,59.747093 
	C287.099060,54.908493 287.021667,50.612091 285.000854,45.887745 
	C290.009308,45.836506 295.017792,45.785267 300.705505,46.092850 
	C306.468658,47.973637 315.633240,59.662663 316.087311,65.204185 
z"/>
<path fill="#6EBB62" opacity="1.000000" stroke="none" 
	d="
M179.696869,236.421875 
	C184.687302,233.697815 189.879868,231.847137 194.378983,228.927780 
	C200.307541,225.080917 205.691467,220.394699 211.672119,216.459641 
	C212.317810,219.223907 212.600922,221.597855 212.884033,223.971817 
	C212.906418,228.344208 212.928787,232.716583 212.506744,237.550537 
	C204.245712,244.938141 196.099350,251.539383 188.787628,258.962708 
	C186.155487,261.635010 185.530380,266.284241 183.989334,270.031250 
	C180.238449,268.251678 178.958664,265.375244 179.164566,261.193542 
	C179.564011,253.081619 179.476303,244.945724 179.696869,236.421875 
z"/>
<path fill="#51A859" opacity="1.000000" stroke="none" 
	d="
M281.002136,120.037117 
	C271.304626,120.109436 261.607117,120.181747 251.458344,119.738647 
	C252.002533,114.976288 252.997955,110.729362 254.444138,106.345230 
	C259.687592,106.159798 264.480621,106.052559 269.272797,106.081909 
	C273.137238,106.105576 275.142761,104.423286 275.093567,100.437920 
	C275.042603,96.307480 275.091736,92.175797 275.278442,88.024292 
	C275.459808,88.003914 275.810608,87.903214 276.289856,87.940079 
	C285.064392,88.035759 293.359650,88.094574 301.654907,88.153397 
	C298.581512,93.281677 295.508118,98.409958 291.823975,103.813995 
	C290.799103,105.042900 290.384918,105.996048 289.970703,106.949188 
	C289.970703,106.949181 290.005188,106.991333 289.614868,107.026520 
	C282.878174,109.101990 282.101990,114.672112 281.002136,120.037117 
z"/>
<path fill="#2A81B8" opacity="1.000000" stroke="none" 
	d="
M134.334534,121.296631 
	C136.814987,120.503067 139.549393,119.391624 141.573853,120.157288 
	C142.910370,120.662766 143.718903,123.824532 143.892960,125.871040 
	C144.217468,129.686584 143.648804,133.508774 148.119019,135.629364 
	C152.778397,137.839691 156.967789,139.118866 161.198380,134.626495 
	C162.544540,133.197037 165.039642,132.849533 167.473846,132.453979 
	C167.962326,135.490509 168.207962,138.101929 167.954300,140.663940 
	C167.625061,143.989594 168.855545,145.506882 172.175232,145.721481 
	C172.177658,148.450134 172.194672,150.751373 171.859100,153.193878 
	C170.768524,154.478775 169.707733,155.530807 169.352341,156.783035 
	C168.234726,160.721176 165.305115,162.526932 162.258972,160.202103 
	C159.065308,157.764679 157.250946,159.418777 155.047211,160.896484 
	C150.132263,152.496307 143.011230,147.064972 134.731689,142.970581 
	C134.583420,135.905823 134.435135,128.841064 134.334534,121.296631 
z"/>
<path fill="#79C369" opacity="1.000000" stroke="none" 
	d="
M301.901337,88.043564 
	C293.359650,88.094574 285.064392,88.035759 276.233887,87.554413 
	C275.461121,85.423058 275.223633,83.714226 274.970398,81.628952 
	C271.507965,78.825226 270.612701,75.497108 270.835510,71.393013 
	C270.929840,69.655121 269.540833,67.836693 269.128052,65.827980 
	C271.772705,59.137779 269.606171,54.342140 264.233276,50.403702 
	C263.025970,49.518734 262.718506,47.406235 261.996796,45.858841 
	C269.355499,45.818962 276.714233,45.779083 284.536896,45.813477 
	C287.021667,50.612091 287.099060,54.908493 284.354736,59.747093 
	C283.210175,61.765133 284.245422,66.327774 285.930511,68.397133 
	C290.983978,74.603081 296.846619,80.150154 302.745850,85.993988 
	C302.781433,86.666992 302.464600,87.300362 301.901337,88.043564 
z"/>
<path fill="#2C9FCF" opacity="1.000000" stroke="none" 
	d="
M167.801270,218.002518 
	C167.880737,228.692764 167.960205,239.383026 167.587204,250.527679 
	C165.741516,249.957153 163.959152,249.202881 163.024521,247.859024 
	C159.549347,242.862183 156.963669,237.112396 152.909698,232.683640 
	C146.716141,225.917496 141.920761,218.588135 139.455551,209.793640 
	C138.722763,207.179428 137.540039,205.617493 134.639313,205.964706 
	C134.549667,201.939362 134.460022,197.914032 134.892456,193.445892 
	C142.193268,193.245865 145.711151,196.054474 148.176315,203.191895 
	C152.163742,214.736786 156.398697,217.932831 167.801270,218.002518 
z"/>
<path fill="#6ABD79" opacity="1.000000" stroke="none" 
	d="
M198.998383,45.870598 
	C205.689789,45.818325 212.381210,45.766056 219.577652,46.195827 
	C222.335464,53.782139 224.488327,60.920357 226.884918,67.975777 
	C228.013580,71.298462 229.610458,74.462082 230.536743,77.803894 
	C220.718781,77.798477 211.359268,77.686951 201.999939,77.152031 
	C200.999542,66.442627 199.998962,56.156612 198.998383,45.870598 
z"/>
<path fill="#72BF76" opacity="1.000000" stroke="none" 
	d="
M230.995178,77.697784 
	C229.610458,74.462082 228.013580,71.298462 226.884918,67.975777 
	C224.488327,60.920357 222.335464,53.782139 220.041580,46.270981 
	C225.690735,45.808075 231.381012,45.752060 237.538666,46.159256 
	C239.073669,48.156784 240.142532,49.690220 241.208527,51.225632 
	C242.465942,53.036774 244.467087,54.719173 244.811798,56.690628 
	C245.412872,60.128441 244.809906,63.759686 245.096786,67.278458 
	C245.202362,68.573219 246.398911,69.779030 247.107483,71.460396 
	C246.980576,74.024231 247.593842,77.484283 246.579819,78.055466 
	C241.746796,80.777847 243.543182,85.238266 242.481781,89.014984 
	C238.938553,88.889977 235.782455,88.790314 232.695038,88.263199 
	C232.174194,84.456436 231.584686,81.077110 230.995178,77.697784 
z"/>
<path fill="#4CAE63" opacity="1.000000" stroke="none" 
	d="
M172.211670,153.052612 
	C172.194672,150.751373 172.177658,148.450134 172.575897,145.619354 
	C175.192017,144.856506 177.392883,144.623169 179.811798,144.733521 
	C182.757339,148.169418 186.395477,148.807449 189.994202,147.768280 
	C199.323135,145.074509 206.466629,139.922424 209.013763,129.793579 
	C209.466248,127.994286 211.422577,126.573174 212.684479,124.977432 
	C212.776428,130.345108 212.868362,135.712784 212.676559,141.865341 
	C212.284729,146.759109 212.176620,150.867981 211.711014,155.017044 
	C209.819626,155.969757 208.334457,156.979675 206.742447,157.775986 
	C202.499313,159.898315 198.210190,161.928741 193.812347,163.679504 
	C191.193634,159.976761 188.841690,156.978561 184.165405,160.980743 
	C183.465225,161.580017 178.371719,159.148849 178.360825,158.088226 
	C178.312576,153.390884 175.499710,153.177719 172.211670,153.052612 
z"/>
<path fill="#3DA156" opacity="1.000000" stroke="none" 
	d="
M232.626358,88.690651 
	C235.782455,88.790314 238.938553,88.889977 242.549591,89.458382 
	C242.936157,92.616066 242.867752,95.305016 242.438782,98.000000 
	C237.605362,99.273514 236.312302,102.535088 235.891373,106.841438 
	C235.588928,109.935623 234.302231,112.938637 233.403870,115.967262 
	C232.999603,117.330116 232.471375,118.656197 231.999390,119.998962 
	C225.865707,120.193825 219.732025,120.388687 212.976334,120.532867 
	C211.569550,118.988426 210.784775,117.494675 210.153870,115.647583 
	C211.669098,104.404526 217.038239,96.722893 227.692200,92.982269 
	C228.774109,92.602409 229.241608,90.472694 230.309875,89.039154 
	C231.292450,88.845741 231.959412,88.768196 232.626358,88.690651 
z"/>
<path fill="#2F99CA" opacity="1.000000" stroke="none" 
	d="
M167.901566,217.596222 
	C156.398697,217.932831 152.163742,214.736786 148.176315,203.191895 
	C145.711151,196.054474 142.193268,193.245865 135.051697,193.010666 
	C134.572372,188.642868 134.455872,184.267502 134.810486,179.459198 
	C141.855927,182.690674 148.430206,186.355103 154.877258,190.363342 
	C152.568970,193.661926 154.757721,195.473511 156.807098,196.672150 
	C157.959946,197.346405 160.265381,197.249954 161.411728,196.509781 
	C164.810913,194.315018 167.988983,195.540634 168.523682,198.480484 
	C169.309113,202.798660 171.686951,203.245468 174.945343,203.821198 
	C174.930191,206.815933 174.921890,209.387329 174.913574,211.958710 
	C171.719284,212.526031 166.948868,211.010910 167.901566,217.596222 
z"/>
<path fill="#38ADDB" opacity="1.000000" stroke="none" 
	d="
M177.199463,280.095856 
	C166.390274,284.026001 166.170517,283.907867 160.831665,273.008667 
	C160.267593,271.857147 159.414749,270.550110 158.343277,269.991241 
	C150.105301,265.694397 146.441483,257.880035 142.500671,250.162781 
	C141.010986,247.245560 139.938553,243.308395 134.842133,244.001617 
	C134.387100,239.963959 134.298325,235.923187 134.668793,231.426239 
	C136.647858,231.050842 138.810028,230.516571 139.577347,231.317902 
	C143.084549,234.980591 146.398560,238.874680 149.369904,242.983627 
	C150.762711,244.909714 150.933289,247.683945 152.179749,249.760513 
	C153.761505,252.395676 155.402542,255.818878 157.881500,256.874481 
	C160.709976,258.078949 164.488632,257.051941 167.854370,256.994659 
	C167.922760,257.316681 168.099976,257.659180 168.043762,257.957764 
	C166.275970,267.347046 170.484055,274.017792 177.660767,279.686554 
	C177.597626,280.054230 177.199463,280.095856 177.199463,280.095856 
z"/>
<path fill="#4FB3A0" opacity="1.000000" stroke="none" 
	d="
M114.994331,45.845623 
	C121.021561,45.789501 127.048790,45.733379 133.538605,46.196720 
	C135.476929,54.752335 136.929367,62.792881 138.443405,70.821815 
	C138.867798,73.072388 139.473495,75.288788 139.546143,77.640717 
	C135.064819,77.681099 131.033401,77.601616 126.989227,77.185593 
	C124.877647,74.915512 122.094238,73.353653 120.805626,70.980217 
	C116.586761,63.209717 111.850166,55.383423 114.994331,45.845623 
z"/>
<path fill="#65BB80" opacity="1.000000" stroke="none" 
	d="
M198.535736,45.792656 
	C199.998962,56.156612 200.999542,66.442627 201.545090,77.274826 
	C195.060272,77.739998 189.030472,77.658989 182.998474,77.175514 
	C182.329544,66.472855 181.662842,56.172657 180.996124,45.872463 
	C186.688446,45.819881 192.380753,45.767300 198.535736,45.792656 
z"/>
<path fill="#52AE5E" opacity="1.000000" stroke="none" 
	d="
M193.939346,163.995712 
	C198.210190,161.928741 202.499313,159.898315 206.742447,157.775986 
	C208.334457,156.979675 209.819626,155.969757 211.914062,155.040482 
	C212.474625,155.023743 212.883636,155.050446 212.883636,155.050446 
	C212.884094,163.056839 212.884552,171.063217 212.786591,179.528320 
	C207.792603,180.779480 204.579636,183.197510 203.902252,188.475662 
	C203.220566,193.787247 199.776260,197.469009 195.709885,200.436996 
	C194.518875,201.306290 192.393661,200.895645 190.345917,200.623444 
	C189.954208,199.345154 189.913223,198.515030 190.072189,197.407745 
	C192.071579,195.261887 194.351288,193.786682 192.291275,190.465515 
	C189.775314,186.409241 191.104401,184.372314 195.785004,182.812576 
	C197.123032,182.366699 198.548294,180.148087 198.666046,178.643173 
	C198.785385,177.117920 197.620163,174.334610 196.528137,174.061844 
	C189.936050,172.415344 189.691528,168.975204 193.939346,163.995712 
z"/>
<path fill="#3CA359" opacity="1.000000" stroke="none" 
	d="
M210.000000,116.000916 
	C210.784775,117.494675 211.569550,118.988426 212.584290,120.694611 
	C212.831696,121.997681 212.849167,123.088326 212.775558,124.578201 
	C211.422577,126.573174 209.466248,127.994286 209.013763,129.793579 
	C206.466629,139.922424 199.323135,145.074509 189.994202,147.768280 
	C186.395477,148.807449 182.757339,148.169418 179.794235,144.315399 
	C179.666611,139.036896 179.774582,134.520233 180.292404,130.003128 
	C188.762543,131.153610 194.782181,128.685654 199.596680,121.593796 
	C201.557037,118.706146 206.444382,117.805573 210.000000,116.000916 
z"/>
<path fill="#2688BD" opacity="1.000000" stroke="none" 
	d="
M113.002319,120.026283 
	C102.308464,120.100273 91.614601,120.174271 80.467285,119.766251 
	C79.930367,117.087822 80.674019,114.300331 79.606796,112.806915 
	C76.529602,108.500839 76.752029,103.989876 77.667709,99.400284 
	C80.508492,101.252464 82.595291,100.543579 84.571510,98.515381 
	C86.290558,96.751137 88.141426,95.115334 90.318672,93.618454 
	C91.303627,94.583015 92.330322,95.297112 92.437271,96.129387 
	C93.347855,103.215698 98.444656,105.773018 104.367157,107.687401 
	C111.480942,109.986839 112.973038,112.256470 113.002319,120.026283 
z"/>
<path fill="#61BA8A" opacity="1.000000" stroke="none" 
	d="
M180.533325,45.794670 
	C181.662842,56.172657 182.329544,66.472855 182.545212,77.294586 
	C177.405197,77.735207 172.716202,77.654305 167.955276,77.242767 
	C166.629852,74.255295 164.658249,71.701218 164.260498,68.921906 
	C163.162918,61.252686 162.723434,53.489281 162.023682,45.763123 
	C168.039291,45.747707 174.054916,45.732296 180.533325,45.794670 
z"/>
<path fill="#41B0BD" opacity="1.000000" stroke="none" 
	d="
M67.039040,80.134811 
	C62.588505,75.945099 63.335129,68.304688 57.044125,65.211868 
	C56.001793,64.699432 55.598633,62.724380 55.085358,61.355755 
	C54.746586,60.452442 55.064056,58.836601 54.533405,58.543583 
	C49.037807,55.508911 51.523743,50.900204 51.998569,46.250259 
	C58.692074,45.769699 65.384781,45.722485 72.504669,46.141373 
	C72.592705,48.885120 72.157661,51.153671 71.940529,53.442886 
	C71.708466,55.889587 72.102165,58.468117 71.481224,60.790882 
	C70.037163,66.192711 71.970062,69.887505 76.138336,73.205406 
	C77.867012,74.581421 78.738625,77.034164 79.635696,79.002563 
	C77.811783,80.106232 76.352165,81.204597 74.556198,82.120468 
	C71.826248,81.336922 69.432640,80.735870 67.039040,80.134811 
z"/>
<path fill="#56B599" opacity="1.000000" stroke="none" 
	d="
M139.996033,77.520859 
	C139.473495,75.288788 138.867798,73.072388 138.443405,70.821815 
	C136.929367,62.792881 135.476929,54.752335 134.002197,46.274239 
	C140.015839,45.776924 146.028488,45.721554 152.520065,46.188896 
	C153.006149,48.702507 152.808533,50.719261 153.056152,52.679783 
	C154.091797,60.879700 156.095596,69.097908 151.988007,77.068283 
	C151.919739,77.200783 151.972870,77.395859 151.519180,77.661819 
	C147.378021,77.681557 143.687027,77.601204 139.996033,77.520859 
z"/>
<path fill="#30A7D6" opacity="1.000000" stroke="none" 
	d="
M167.946198,256.572754 
	C164.488632,257.051941 160.709976,258.078949 157.881500,256.874481 
	C155.402542,255.818878 153.761505,252.395676 152.179749,249.760513 
	C150.933289,247.683945 150.762711,244.909714 149.369904,242.983627 
	C146.398560,238.874680 143.084549,234.980591 139.577347,231.317902 
	C138.810028,230.516571 136.647858,231.050842 134.799347,230.980118 
	C134.419037,222.946854 134.367447,214.903488 134.477585,206.412415 
	C137.540039,205.617493 138.722763,207.179428 139.455551,209.793640 
	C141.920761,218.588135 146.716141,225.917496 152.909698,232.683640 
	C156.963669,237.112396 159.549347,242.862183 163.024521,247.859024 
	C163.959152,249.202881 165.741516,249.957153 167.492523,250.987579 
	C167.912888,252.712341 167.975449,254.431610 167.946198,256.572754 
z"/>
<path fill="#7DC356" opacity="1.000000" stroke="none" 
	d="
M204.529968,290.224640 
	C198.785965,284.684418 193.041962,279.144165 187.520554,273.260742 
	C189.382874,271.589905 191.109558,270.355316 192.646851,268.918152 
	C198.485809,263.459503 204.851669,258.926697 212.773895,257.003265 
	C212.844238,266.354187 212.914566,275.705109 212.563278,285.563934 
	C209.604431,287.456116 207.067200,288.840393 204.529968,290.224640 
z"/>
<path fill="#3192C5" opacity="1.000000" stroke="none" 
	d="
M155.004486,190.019531 
	C148.430206,186.355103 141.855927,182.690674 134.963943,179.021088 
	C134.553085,170.964600 134.459915,162.913269 134.884521,154.424103 
	C137.136353,154.692139 138.885239,155.363907 140.601608,156.110474 
	C145.169510,158.097351 149.723389,160.116486 154.220062,162.498901 
	C154.544205,163.920700 154.836502,165.014053 155.335068,166.003464 
	C157.116028,169.537888 156.111404,172.660019 152.251053,173.660767 
	C149.528351,174.366608 148.381531,175.478485 148.288986,178.301285 
	C148.194397,181.186386 149.441467,182.317749 152.056702,183.149445 
	C155.333298,184.191452 157.721085,186.151596 155.004486,190.019531 
z"/>
<path fill="#44AFB7" opacity="1.000000" stroke="none" 
	d="
M80.000000,78.997253 
	C78.738625,77.034164 77.867012,74.581421 76.138336,73.205406 
	C71.970062,69.887505 70.037163,66.192711 71.481224,60.790882 
	C72.102165,58.468117 71.708466,55.889587 71.940529,53.442886 
	C72.157661,51.153671 72.592705,48.885120 72.967842,46.223969 
	C75.707680,45.790009 78.411522,45.739552 81.564835,46.177620 
	C84.800926,55.358334 85.543060,65.104599 94.480850,70.638184 
	C94.947357,70.927002 94.831429,72.156563 94.857407,73.257431 
	C92.218872,76.140945 89.709579,78.715172 87.145020,81.186859 
	C87.089745,81.084312 86.956108,80.893448 86.934738,80.611115 
	C86.275322,80.219780 85.637268,80.110771 84.629997,79.997589 
	C82.840515,79.661369 81.420258,79.329315 80.000000,78.997253 
z"/>
<path fill="#75C26F" opacity="1.000000" stroke="none" 
	d="
M247.097824,71.025421 
	C246.398911,69.779030 245.202362,68.573219 245.096786,67.278458 
	C244.809906,63.759686 245.412872,60.128441 244.811798,56.690628 
	C244.467087,54.719173 242.465942,53.036774 241.208527,51.225632 
	C240.142532,49.690220 239.073669,48.156784 238.001434,46.237419 
	C245.687927,45.803459 253.379074,45.754555 261.533508,45.782249 
	C262.718506,47.406235 263.025970,49.518734 264.233276,50.403702 
	C269.606171,54.342140 271.772705,59.137779 268.812134,65.670303 
	C260.475861,60.233879 252.495407,62.233459 247.097824,71.025421 
z"/>
<path fill="#74C05C" opacity="1.000000" stroke="none" 
	d="
M212.870926,256.543152 
	C204.851669,258.926697 198.485809,263.459503 192.646851,268.918152 
	C191.109558,270.355316 189.382874,271.589905 187.396545,272.953461 
	C186.109680,272.194580 185.169418,271.399750 184.109253,270.318085 
	C185.530380,266.284241 186.155487,261.635010 188.787628,258.962708 
	C196.099350,251.539383 204.245712,244.938141 212.409454,238.006226 
	C212.827026,244.027908 212.897491,250.055450 212.870926,256.543152 
z"/>
<path fill="#4EB3A8" opacity="1.000000" stroke="none" 
	d="
M114.532532,45.766293 
	C111.850166,55.383423 116.586761,63.209717 120.805626,70.980217 
	C122.094238,73.353653 124.877647,74.915512 126.538422,77.306259 
	C122.037750,77.778435 117.975136,77.793396 113.700577,77.556015 
	C111.782623,76.110367 110.076622,74.917061 108.559509,73.423210 
	C109.482262,72.246895 110.220169,71.374481 110.949249,70.494751 
	C113.614334,67.278954 112.942726,64.181160 108.892593,63.152245 
	C107.184586,62.718342 105.060661,63.921574 103.067978,63.987206 
	C101.338043,57.667171 99.665932,51.740562 97.993828,45.813957 
	C103.352798,45.771626 108.711761,45.729294 114.532532,45.766293 
z"/>
<path fill="#2C9AA7" opacity="1.000000" stroke="none" 
	d="
M196.113281,297.735474 
	C201.402725,302.708588 207.624619,307.041687 211.638809,312.890076 
	C214.125137,316.512451 213.257767,322.436737 213.895844,327.327728 
	C213.398773,327.530609 212.901688,327.733521 212.404617,327.936432 
	C204.618073,322.728638 196.831528,317.520844 188.979782,311.599548 
	C190.137833,308.673187 191.368149,306.464264 192.582306,304.246460 
	C193.767883,302.080841 194.936966,299.906158 196.113281,297.735474 
z"/>
<path fill="#2B8EC4" opacity="1.000000" stroke="none" 
	d="
M77.340401,99.259666 
	C76.752029,103.989876 76.529602,108.500839 79.606796,112.806915 
	C80.674019,114.300331 79.930367,117.087822 80.007782,119.663498 
	C77.297089,120.108681 74.592438,120.174614 71.444099,119.726532 
	C69.458183,105.814194 66.679726,102.624313 53.185318,100.946960 
	C52.581249,100.149559 51.977184,99.352158 51.722008,98.190201 
	C55.302296,96.900078 58.484192,95.529053 61.777760,95.163116 
	C65.781654,94.718269 67.285538,92.849739 67.327286,89.116714 
	C70.888344,92.523979 74.114372,95.891823 77.340401,99.259666 
z"/>
<path fill="#6FC0A2" opacity="1.000000" stroke="none" 
	d="
M151.969345,77.561729 
	C151.972870,77.395859 151.919739,77.200783 151.988007,77.068283 
	C156.095596,69.097908 154.091797,60.879700 153.056152,52.679783 
	C152.808533,50.719261 153.006149,48.702507 152.984650,46.234947 
	C155.766754,45.635288 158.563202,45.512295 161.691666,45.576210 
	C162.723434,53.489281 163.162918,61.252686 164.260498,68.921906 
	C164.658249,71.701218 166.629852,74.255295 167.502075,77.374191 
	C162.070328,77.744743 157.019836,77.653236 151.969345,77.561729 
z"/>
<path fill="#4AB3B3" opacity="1.000000" stroke="none" 
	d="
M97.532295,45.738987 
	C99.665932,51.740562 101.338043,57.667171 102.914223,64.261353 
	C100.207741,67.601997 97.597191,70.275070 94.986649,72.948151 
	C94.831429,72.156563 94.947357,70.927002 94.480850,70.638184 
	C85.543060,65.104599 84.800926,55.358334 82.010178,46.255585 
	C87.027618,45.784691 92.049194,45.724358 97.532295,45.738987 
z"/>
<path fill="#208997" opacity="1.000000" stroke="none" 
	d="
M195.970123,297.443237 
	C194.936966,299.906158 193.767883,302.080841 192.582306,304.246460 
	C191.368149,306.464264 190.137833,308.673187 188.862000,311.312134 
	C186.222595,310.126648 183.635773,308.515045 180.856857,306.631348 
	C179.485916,297.869720 178.307068,289.380127 177.163849,280.493225 
	C177.199463,280.095856 177.597626,280.054230 177.786804,279.990417 
	C183.926300,285.668091 189.876633,291.409546 195.970123,297.443237 
z"/>
<path fill="#43A657" opacity="1.000000" stroke="none" 
	d="
M232.455322,120.118004 
	C232.471375,118.656197 232.999603,117.330116 233.403870,115.967262 
	C234.302231,112.938637 235.588928,109.935623 235.891373,106.841438 
	C236.312302,102.535088 237.605362,99.273514 242.545776,98.408730 
	C243.289917,105.665955 243.810745,106.168762 250.533264,106.238350 
	C251.687347,106.250298 252.840042,106.397644 253.993378,106.482437 
	C252.997955,110.729362 252.002533,114.976288 251.002457,119.616936 
	C244.968948,120.086121 238.940094,120.161583 232.455322,120.118004 
z"/>
<path fill="#2A81B8" opacity="1.000000" stroke="none" 
	d="
M113.433327,120.146362 
	C112.973038,112.256470 111.480942,109.986839 104.367157,107.687401 
	C98.444656,105.773018 93.347855,103.215698 92.437271,96.129387 
	C92.330322,95.297112 91.303627,94.583015 90.490311,93.322609 
	C91.488098,91.532097 92.698891,90.233116 94.258041,88.955933 
	C95.071617,88.987976 95.536842,88.998215 96.002060,89.008446 
	C96.623955,94.725349 101.754997,96.573792 105.362770,99.594879 
	C109.739731,103.260063 115.025848,105.954941 118.929840,110.019371 
	C120.795288,111.961487 120.379036,116.095238 120.995285,119.685226 
	C118.617668,120.178223 116.241005,120.222328 113.433327,120.146362 
z"/>
<path fill="#89CF69" opacity="1.000000" stroke="none" 
	d="
M316.367462,65.005318 
	C315.633240,59.662663 306.468658,47.973637 301.165039,46.161095 
	C309.689911,45.870514 318.434479,45.870514 328.371155,45.870514 
	C324.339325,52.382751 320.493469,58.594604 316.367462,65.005318 
z"/>
<path fill="#59B46B" opacity="1.000000" stroke="none" 
	d="
M189.872223,197.684921 
	C189.913223,198.515030 189.954208,199.345154 189.997284,200.591293 
	C190.114746,203.422195 190.869019,206.028839 190.213654,208.212387 
	C188.810196,212.888412 184.751511,213.413864 180.065399,213.110382 
	C178.250305,212.865082 176.889542,212.576187 175.221191,212.123001 
	C174.921890,209.387329 174.930191,206.815933 175.315460,203.694458 
	C176.497925,201.866348 177.559052,200.680328 178.058487,199.292206 
	C179.299606,195.842804 181.999817,194.804581 185.316528,196.476456 
	C186.689331,197.168442 188.345123,197.299026 189.872223,197.684921 
z"/>
<path fill="#2688BD" opacity="1.000000" stroke="none" 
	d="
M154.282852,162.122772 
	C149.723389,160.116486 145.169510,158.097351 140.601608,156.110474 
	C138.885239,155.363907 137.136353,154.692139 135.055084,153.985962 
	C134.607620,150.604385 134.507370,147.223114 134.569397,143.406204 
	C143.011230,147.064972 150.132263,152.496307 154.991669,161.102875 
	C154.821075,161.932724 154.586655,162.082153 154.282852,162.122772 
z"/>
<path fill="#50B8C2" opacity="1.000000" stroke="none" 
	d="
M40.793461,80.516724 
	C46.087097,76.831627 50.719849,77.914162 55.601570,81.774757 
	C57.705219,83.438377 61.222557,83.314384 64.543869,84.336288 
	C65.318420,85.779404 65.646767,86.888733 65.594414,88.168007 
	C58.936466,88.552338 52.659214,88.766716 46.381966,88.981094 
	C44.553032,86.272713 42.724094,83.564331 40.793461,80.516724 
z"/>
<path fill="#2F99CA" opacity="1.000000" stroke="none" 
	d="
M53.192184,101.290169 
	C66.679726,102.624313 69.458183,105.814194 71.002014,119.630882 
	C67.092842,121.060394 64.591537,119.779350 62.568672,116.087532 
	C59.817127,111.065834 56.355930,106.432983 53.192184,101.290169 
z"/>
<path fill="#2688BD" opacity="1.000000" stroke="none" 
	d="
M46.386433,89.331253 
	C52.659214,88.766716 58.936466,88.552338 65.728447,88.378937 
	C66.463692,88.672295 66.713387,88.891418 66.992256,89.077293 
	C67.285538,92.849739 65.781654,94.718269 61.777760,95.163116 
	C58.484192,95.529053 55.302296,96.900078 51.722954,97.873367 
	C49.713634,95.174522 48.052265,92.427971 46.386433,89.331253 
z"/>
<path fill="#8DC995" opacity="1.000000" stroke="none" 
	d="
M213.099731,223.631927 
	C212.600922,221.597855 212.317810,219.223907 212.020782,216.423492 
	C212.118103,208.217621 212.229340,200.438202 212.602356,192.342957 
	C213.014587,202.448776 213.165009,212.870407 213.099731,223.631927 
z"/>
<path fill="#89CF69" opacity="1.000000" stroke="none" 
	d="
M204.676117,290.537354 
	C207.067200,288.840393 209.604431,287.456116 212.483887,286.025238 
	C212.826111,289.716919 212.826111,293.455170 212.826111,298.798248 
	C209.638519,295.632843 207.230392,293.241486 204.676117,290.537354 
z"/>
<path fill="#5FB460" opacity="1.000000" stroke="none" 
	d="
M281.353577,120.000565 
	C282.101990,114.672112 282.878174,109.101990 289.588806,107.018875 
	C287.203674,111.305382 284.454346,115.634697 281.353577,120.000565 
z"/>
<path fill="#8DC995" opacity="1.000000" stroke="none" 
	d="
M213.040527,154.670761 
	C212.883636,155.050446 212.474625,155.023743 212.271576,155.000305 
	C212.176620,150.867981 212.284729,146.759109 212.646545,142.333221 
	C212.999298,146.107834 213.098343,150.199463 213.040527,154.670761 
z"/>
<path fill="#5FB460" opacity="1.000000" stroke="none" 
	d="
M290.250061,106.812241 
	C290.384918,105.996048 290.799103,105.042900 291.544617,104.024437 
	C291.427063,104.864510 290.978241,105.769897 290.250061,106.812241 
z"/>
<path fill="#66C0E2" opacity="1.000000" stroke="none" 
	d="
M145.855225,284.449371 
	C146.455185,284.495453 147.183853,284.820221 147.985703,285.461945 
	C147.367233,285.428619 146.675583,285.078339 145.855225,284.449371 
z"/>
<path fill="#F6FAF8" opacity="1.000000" stroke="none" 
	d="
M151.519180,77.661819 
	C157.019836,77.653236 162.070328,77.744743 167.574020,77.704826 
	C172.716202,77.654305 177.405197,77.735207 182.547424,77.697052 
	C189.030472,77.658989 195.060272,77.739998 201.544907,77.698212 
	C211.359268,77.686951 220.718781,77.798477 230.536728,77.803894 
	C231.584686,81.077110 232.174194,84.456436 232.695038,88.263199 
	C231.959412,88.768196 231.292450,88.845741 229.852875,88.929817 
	C223.051987,89.029961 217.023743,89.123589 210.539459,89.101334 
	C200.048203,88.985458 190.013000,88.985458 179.866409,88.985458 
	C179.866409,101.517410 179.866409,113.261978 179.761627,125.414360 
	C179.732086,127.215965 179.807327,128.609756 179.882568,130.003555 
	C179.774582,134.520233 179.666611,139.036896 179.576172,143.971710 
	C177.392883,144.623169 175.192017,144.856506 172.590500,145.191956 
	C168.855545,145.506882 167.625061,143.989594 167.954300,140.663940 
	C168.207962,138.101929 167.962326,135.490509 167.833008,132.446716 
	C167.804260,128.955505 167.881195,125.918633 167.958557,121.978241 
	C167.959015,110.512390 167.959015,99.950066 167.959015,89.259804 
	C157.169479,89.259804 147.085236,89.259804 137.000992,89.259804 
	C129.683670,89.147110 122.366356,89.034416 114.515930,88.450256 
	C113.959396,84.588654 113.935966,81.198502 113.912529,77.808357 
	C117.975136,77.793396 122.037750,77.778435 126.551163,77.642799 
	C131.033401,77.601616 135.064819,77.681099 139.546143,77.640717 
	C143.687027,77.601204 147.378021,77.681557 151.519180,77.661819 
z"/>
<path fill="#256DA7" opacity="1.000000" stroke="none" 
	d="
M137.003967,89.644447 
	C147.085236,89.259804 157.169479,89.259804 167.959015,89.259804 
	C167.959015,99.950066 167.959015,110.512390 167.858063,121.533401 
	C165.760834,120.495117 163.630890,119.144768 161.795227,117.471565 
	C157.583817,113.632904 153.696655,109.421974 149.343277,105.759911 
	C144.092941,101.343307 137.969254,97.754684 137.003967,89.644447 
z"/>
<path fill="#50B8C2" opacity="1.000000" stroke="none" 
	d="
M113.700577,77.556015 
	C113.935966,81.198502 113.959396,84.588654 114.056213,88.424583 
	C108.398834,88.906471 102.668083,88.942566 96.469696,88.993553 
	C95.536842,88.998215 95.071617,88.987976 94.380173,88.643021 
	C98.892830,83.446785 103.631729,78.585266 108.370621,73.723755 
	C110.076622,74.917061 111.782623,76.110367 113.700577,77.556015 
z"/>
<path fill="#F6FAF8" opacity="1.000000" stroke="none" 
	d="
M108.559509,73.423210 
	C103.631729,78.585266 98.892830,83.446785 94.031815,88.621216 
	C92.698891,90.233116 91.488098,91.532097 90.105667,93.126923 
	C88.141426,95.115334 86.290558,96.751137 84.571510,98.515381 
	C82.595291,100.543579 80.508492,101.252464 77.667709,99.400284 
	C74.114372,95.891823 70.888344,92.523979 67.327286,89.116714 
	C66.713387,88.891418 66.463692,88.672295 66.109146,88.208984 
	C65.646767,86.888733 65.318420,85.779404 64.903641,84.329216 
	C65.449715,82.885727 66.082214,81.783112 66.876877,80.407654 
	C69.432640,80.735870 71.826248,81.336922 74.709961,82.407257 
	C76.911133,84.803650 78.622177,86.730782 80.755142,89.133102 
	C83.299187,86.037010 85.249741,83.663208 87.200287,81.289406 
	C89.709579,78.715172 92.218872,76.140945 94.857407,73.257431 
	C97.597191,70.275070 100.207741,67.601997 102.972046,64.654778 
	C105.060661,63.921574 107.184586,62.718342 108.892593,63.152245 
	C112.942726,64.181160 113.614334,67.278954 110.949249,70.494751 
	C110.220169,71.374481 109.482262,72.246895 108.559509,73.423210 
z"/>
<path fill="#FBFCFA" opacity="1.000000" stroke="none" 
	d="
M254.444153,106.345238 
	C252.840042,106.397644 251.687347,106.250298 250.533264,106.238350 
	C243.810745,106.168762 243.289917,105.665955 242.906342,98.402695 
	C242.867752,95.305016 242.936157,92.616066 242.936722,89.483719 
	C243.543182,85.238266 241.746796,80.777847 246.579819,78.055466 
	C247.593842,77.484283 246.980576,74.024231 247.107483,71.460388 
	C252.495407,62.233459 260.475861,60.233879 268.510132,65.897186 
	C269.540833,67.836693 270.929840,69.655121 270.835510,71.393013 
	C270.612701,75.497108 271.507965,78.825226 274.695801,81.878525 
	C274.657013,84.351250 274.877045,86.197952 275.097076,88.044662 
	C275.091736,92.175797 275.042603,96.307480 275.093567,100.437920 
	C275.142761,104.423286 273.137238,106.105576 269.272797,106.081909 
	C264.480621,106.052559 259.687592,106.159798 254.444153,106.345238 
M261.393127,79.138603 
	C262.823059,79.027840 264.252991,78.917084 265.714752,78.803856 
	C266.406433,74.726807 266.923676,70.795479 262.884674,68.929260 
	C260.967957,68.043625 257.812531,68.111504 255.983414,69.126411 
	C252.276840,71.183037 252.424042,74.958626 253.491913,79.140884 
	C255.896347,79.140884 258.171448,79.140884 261.393127,79.138603 
M260.992920,98.712898 
	C261.577057,96.345100 262.499481,93.993843 262.616364,91.603195 
	C262.684692,90.205719 261.770905,88.418091 260.713898,87.435135 
	C260.072357,86.838554 257.721527,86.962189 257.192657,87.615532 
	C256.325623,88.686562 256.055389,90.445915 256.020447,91.926483 
	C255.986725,93.353737 256.256775,94.982445 256.970795,96.177689 
	C257.666412,97.342087 259.093445,98.069534 260.992920,98.712898 
z"/>
<path fill="#E8F6E8" opacity="1.000000" stroke="none" 
	d="
M275.278442,88.024292 
	C274.877045,86.197952 274.657013,84.351250 274.711548,82.254967 
	C275.223633,83.714226 275.461121,85.423058 275.754639,87.517548 
	C275.810608,87.903214 275.459808,88.003914 275.278442,88.024292 
z"/>
<path fill="#F4F9F7" opacity="1.000000" stroke="none" 
	d="
M154.220062,162.498901 
	C154.586655,162.082153 154.821075,161.932724 155.041687,161.468109 
	C157.250946,159.418777 159.065308,157.764679 162.258972,160.202103 
	C165.305115,162.526932 168.234726,160.721176 169.352341,156.783035 
	C169.707733,155.530807 170.768524,154.478775 171.859100,153.193878 
	C175.499710,153.177719 178.312576,153.390884 178.360825,158.088226 
	C178.371719,159.148849 183.465225,161.580017 184.165405,160.980743 
	C188.841690,156.978561 191.193634,159.976761 193.812347,163.679504 
	C189.691528,168.975204 189.936050,172.415344 196.528137,174.061844 
	C197.620163,174.334610 198.785385,177.117920 198.666046,178.643173 
	C198.548294,180.148087 197.123032,182.366699 195.785004,182.812576 
	C191.104401,184.372314 189.775314,186.409241 192.291275,190.465515 
	C194.351288,193.786682 192.071579,195.261887 190.072189,197.407745 
	C188.345123,197.299026 186.689331,197.168442 185.316528,196.476456 
	C181.999817,194.804581 179.299606,195.842804 178.058487,199.292206 
	C177.559052,200.680328 176.497925,201.866348 175.322327,203.271088 
	C171.686951,203.245468 169.309113,202.798660 168.523682,198.480484 
	C167.988983,195.540634 164.810913,194.315018 161.411728,196.509781 
	C160.265381,197.249954 157.959946,197.346405 156.807098,196.672150 
	C154.757721,195.473511 152.568970,193.661926 154.877258,190.363342 
	C157.721085,186.151596 155.333298,184.191452 152.056702,183.149445 
	C149.441467,182.317749 148.194397,181.186386 148.288986,178.301285 
	C148.381531,175.478485 149.528351,174.366608 152.251053,173.660767 
	C156.111404,172.660019 157.116028,169.537888 155.335068,166.003464 
	C154.836502,165.014053 154.544205,163.920700 154.220062,162.498901 
M174.287247,168.197144 
	C167.185303,168.856613 162.714142,173.182236 163.292664,178.975815 
	C163.883133,184.889084 168.797363,189.640503 175.721802,188.035034 
	C181.407639,186.102875 184.098831,182.750900 183.880951,177.872574 
	C183.656509,172.847916 180.633789,169.634277 174.287247,168.197144 
z"/>
<path fill="#35A256" opacity="1.000000" stroke="none" 
	d="
M210.995499,89.217216 
	C217.023743,89.123589 223.051987,89.029961 229.537231,89.045670 
	C229.241608,90.472694 228.774109,92.602409 227.692200,92.982269 
	C217.038239,96.722893 211.669098,104.404526 210.153870,115.647583 
	C206.444382,117.805573 201.557037,118.706146 199.596680,121.593796 
	C194.782181,128.685654 188.762543,131.153610 180.292404,130.003128 
	C179.807327,128.609756 179.732086,127.215965 180.132721,125.381241 
	C182.454941,123.273277 185.687485,121.772766 185.911163,119.910797 
	C186.962814,111.156876 193.491287,107.880302 199.614166,103.341560 
	C204.314941,99.857010 207.266190,94.012299 210.995499,89.217216 
z"/>
<path fill="#50B8C2" opacity="1.000000" stroke="none" 
	d="
M87.145020,81.186859 
	C85.249741,83.663208 83.299187,86.037010 80.755142,89.133102 
	C78.622177,86.730782 76.911133,84.803650 75.046318,82.589745 
	C76.352165,81.204597 77.811783,80.106232 79.635696,79.002563 
	C81.420258,79.329315 82.840515,79.661369 84.792183,80.238983 
	C85.867767,80.620842 86.411934,80.757149 86.956108,80.893448 
	C86.956108,80.893448 87.089745,81.084312 87.145020,81.186859 
z"/>
<path fill="#41B0BD" opacity="1.000000" stroke="none" 
	d="
M86.934738,80.611122 
	C86.411934,80.757149 85.867767,80.620842 85.161407,80.243149 
	C85.637268,80.110771 86.275322,80.219780 86.934738,80.611122 
z"/>
<path fill="#329E54" opacity="1.000000" stroke="none" 
	d="
M210.539459,89.101334 
	C207.266190,94.012299 204.314941,99.857010 199.614166,103.341560 
	C193.491287,107.880302 186.962814,111.156876 185.911163,119.910797 
	C185.687485,121.772766 182.454941,123.273277 180.237518,124.973434 
	C179.866409,113.261978 179.866409,101.517410 179.866409,88.985458 
	C190.013000,88.985458 200.048203,88.985458 210.539459,89.101334 
z"/>
<path fill="#72BF76" opacity="1.000000" stroke="none" 
	d="
M260.919861,79.139740 
	C258.171448,79.140884 255.896347,79.140884 253.491913,79.140884 
	C252.424042,74.958626 252.276840,71.183037 255.983414,69.126411 
	C257.812531,68.111504 260.967957,68.043625 262.884674,68.929260 
	C266.923676,70.795479 266.406433,74.726807 265.714752,78.803856 
	C264.252991,78.917084 262.823059,79.027840 260.919861,79.139740 
z"/>
<path fill="#59B46B" opacity="1.000000" stroke="none" 
	d="
M260.596130,98.850861 
	C259.093445,98.069534 257.666412,97.342087 256.970795,96.177689 
	C256.256775,94.982445 255.986725,93.353737 256.020447,91.926483 
	C256.055389,90.445915 256.325623,88.686562 257.192657,87.615532 
	C257.721527,86.962189 260.072357,86.838554 260.713898,87.435135 
	C261.770905,88.418091 262.684692,90.205719 262.616364,91.603195 
	C262.499481,93.993843 261.577057,96.345100 260.596130,98.850861 
z"/>
<path fill="#3595B9" opacity="1.000000" stroke="none" 
	d="
M174.978577,187.968475 
	C168.797363,189.640503 163.883133,184.889084 163.292664,178.975815 
	C162.714142,173.182236 167.185303,168.856613 174.648209,168.745697 
	C174.998978,175.518997 174.988785,181.743744 174.978577,187.968475 
z"/>
<path fill="#3C9B87" opacity="1.000000" stroke="none" 
	d="
M175.350189,188.001755 
	C174.988785,181.743744 174.998978,175.518997 175.017670,168.876373 
	C180.633789,169.634277 183.656509,172.847916 183.880951,177.872574 
	C184.098831,182.750900 181.407639,186.102875 175.350189,188.001755 
z"/>
</svg>
